# xmcd
#
# Track frame offsets: 
#        150
#        13863
#        35005
#        51363
#        67430
#        82370
#        100658
#        112900
#        125818
#        137238
#        149550
#        162735
#
# Disc length: 2354 seconds
#
# Revision: 3
# Processed by: cddbd v1.5.2PL0 Copyright (c) Steve Scherf et al.
# Submitted via: ExactAudioCopyFreeDBPlugin 1.0
#
DISCID=c409300c
DTITLE=Aretha Franklin - Spirit in the Dark
DYEAR=1970
DGENRE=Soul
TTITLE0=Don't Play That Song
TTITLE1=The Thrill is Gone (From "Yesterday's Kiss")
TTITLE2=Pullin'
TTITLE3=You and Me
TTITLE4=Honest I Do
TTITLE5=Spirit in the Dark
TTITLE6=When the Battle is Over
TTITLE7=One Way Ticket
TTITLE8=Try Matty's
TTITLE9=That's All I Want from You
TTITLE10=On No Not My Baby
TTITLE11=Why I Sing the Blues
EXTD=
EXTT0=
EXTT1=
EXTT2=
EXTT3=
EXTT4=
EXTT5=
EXTT6=
EXTT7=
EXTT8=
EXTT9=
EXTT10=
EXTT11=
PLAYORDER=
